<mxfile host="65bd71144e">
    <diagram id="yhJQQZJpemWVlzf83SoS" name="PÃ¡gina-1">
        <mxGraphModel dx="820" dy="470" grid="1" gridSize="10" guides="1" tooltips="1" connect="1" arrows="1" fold="1" page="1" pageScale="1" pageWidth="827" pageHeight="1169" math="0" shadow="0">
            <root>
                <mxCell id="0"/>
                <mxCell id="1" parent="0"/>
                <mxCell id="2" value="INICIO" style="ellipse;whiteSpace=wrap;html=1;" vertex="1" parent="1">
                    <mxGeometry x="370" y="50" width="120" height="80" as="geometry"/>
                </mxCell>
                <mxCell id="3" value="M&amp;gt;3&amp;nbsp; &amp;nbsp; M&amp;lt;3" style="shape=parallelogram;perimeter=parallelogramPerimeter;whiteSpace=wrap;html=1;fixedSize=1;" vertex="1" parent="1">
                    <mxGeometry x="370" y="180" width="120" height="60" as="geometry"/>
                </mxCell>
                <mxCell id="4" value="" style="endArrow=classic;html=1;exitX=0.5;exitY=1;exitDx=0;exitDy=0;entryX=0.5;entryY=0;entryDx=0;entryDy=0;" edge="1" parent="1" source="2" target="3">
                    <mxGeometry width="50" height="50" relative="1" as="geometry">
                        <mxPoint x="590" y="160" as="sourcePoint"/>
                        <mxPoint x="640" y="110" as="targetPoint"/>
                    </mxGeometry>
                </mxCell>
                <mxCell id="5" value="" style="endArrow=classic;html=1;" edge="1" parent="1" source="3">
                    <mxGeometry width="50" height="50" relative="1" as="geometry">
                        <mxPoint x="390" y="400" as="sourcePoint"/>
                        <mxPoint x="430" y="300" as="targetPoint"/>
                    </mxGeometry>
                </mxCell>
                <mxCell id="6" value="m&amp;gt;3" style="rhombus;whiteSpace=wrap;html=1;" vertex="1" parent="1">
                    <mxGeometry x="375" y="300" width="110" height="90" as="geometry"/>
                </mxCell>
                <mxCell id="7" value="" style="endArrow=classic;html=1;exitX=1;exitY=0.5;exitDx=0;exitDy=0;" edge="1" parent="1" source="6">
                    <mxGeometry width="50" height="50" relative="1" as="geometry">
                        <mxPoint x="390" y="400" as="sourcePoint"/>
                        <mxPoint x="640" y="440" as="targetPoint"/>
                        <Array as="points">
                            <mxPoint x="640" y="345"/>
                        </Array>
                    </mxGeometry>
                </mxCell>
                <mxCell id="8" value="v" style="text;html=1;align=center;verticalAlign=middle;resizable=0;points=[];autosize=1;strokeColor=none;fillColor=none;" vertex="1" parent="1">
                    <mxGeometry x="560" y="310" width="20" height="20" as="geometry"/>
                </mxCell>
                <mxCell id="9" value="(n*300)+(n-3)*50" style="rounded=0;whiteSpace=wrap;html=1;" vertex="1" parent="1">
                    <mxGeometry x="580" y="440" width="120" height="60" as="geometry"/>
                </mxCell>
                <mxCell id="10" value="" style="endArrow=classic;html=1;exitX=0;exitY=0.5;exitDx=0;exitDy=0;entryX=0.5;entryY=0;entryDx=0;entryDy=0;" edge="1" parent="1" source="6" target="12">
                    <mxGeometry width="50" height="50" relative="1" as="geometry">
                        <mxPoint x="200" y="560" as="sourcePoint"/>
                        <mxPoint x="200" y="440" as="targetPoint"/>
                        <Array as="points">
                            <mxPoint x="210" y="345"/>
                            <mxPoint x="210" y="390"/>
                        </Array>
                    </mxGeometry>
                </mxCell>
                <mxCell id="11" value="f" style="text;html=1;align=center;verticalAlign=middle;resizable=0;points=[];autosize=1;strokeColor=none;fillColor=none;" vertex="1" parent="1">
                    <mxGeometry x="280" y="310" width="20" height="20" as="geometry"/>
                </mxCell>
                <mxCell id="12" value="n=300" style="rounded=0;whiteSpace=wrap;html=1;" vertex="1" parent="1">
                    <mxGeometry x="150" y="440" width="120" height="60" as="geometry"/>
                </mxCell>
                <mxCell id="13" value="" style="endArrow=classic;html=1;exitX=0.5;exitY=1;exitDx=0;exitDy=0;" edge="1" parent="1" source="9">
                    <mxGeometry width="50" height="50" relative="1" as="geometry">
                        <mxPoint x="830" y="700" as="sourcePoint"/>
                        <mxPoint x="430" y="680" as="targetPoint"/>
                        <Array as="points">
                            <mxPoint x="640" y="600"/>
                            <mxPoint x="430" y="600"/>
                        </Array>
                    </mxGeometry>
                </mxCell>
                <mxCell id="14" value="" style="endArrow=classic;html=1;exitX=0.5;exitY=1;exitDx=0;exitDy=0;" edge="1" parent="1" source="12">
                    <mxGeometry width="50" height="50" relative="1" as="geometry">
                        <mxPoint x="200" y="660" as="sourcePoint"/>
                        <mxPoint x="430" y="680" as="targetPoint"/>
                        <Array as="points">
                            <mxPoint x="210" y="600"/>
                            <mxPoint x="430" y="600"/>
                        </Array>
                    </mxGeometry>
                </mxCell>
                <mxCell id="15" value="n" style="shape=document;whiteSpace=wrap;html=1;boundedLbl=1;" vertex="1" parent="1">
                    <mxGeometry x="370" y="680" width="120" height="80" as="geometry"/>
                </mxCell>
                <mxCell id="17" value="" style="endArrow=classic;html=1;exitX=0.583;exitY=0.75;exitDx=0;exitDy=0;exitPerimeter=0;" edge="1" parent="1" source="15" target="18">
                    <mxGeometry width="50" height="50" relative="1" as="geometry">
                        <mxPoint x="510" y="700" as="sourcePoint"/>
                        <mxPoint x="440" y="800" as="targetPoint"/>
                    </mxGeometry>
                </mxCell>
                <mxCell id="18" value="FIN" style="ellipse;whiteSpace=wrap;html=1;" vertex="1" parent="1">
                    <mxGeometry x="380" y="790" width="120" height="80" as="geometry"/>
                </mxCell>
            </root>
        </mxGraphModel>
    </diagram>
</mxfile>